<svg xmlns="http://www.w3.org/2000/svg" xmlns:svg="http://www.w3.org/2000/svg" xmlns:xlink="http://www.w3.org/1999/xlink" id="svg2" width="300.004" height="300" version="1.0"><defs id="defs4"><linearGradient id="linearGradient5324-8-8" x1="-20.659" x2="-25.418" y1="37.909" y2="38.523" gradientUnits="userSpaceOnUse" xlink:href="#linearGradient4766-8-8"/><linearGradient id="linearGradient4766-8-8"><stop style="stop-color:#784421;stop-opacity:1" id="stop4768-2-1" offset="0"/><stop style="stop-color:#3d2210;stop-opacity:0" id="stop4770-7-2" offset="1"/></linearGradient><linearGradient id="linearGradient5324-8-6" x1="-20.659" x2="-25.418" y1="37.909" y2="38.523" gradientUnits="userSpaceOnUse" xlink:href="#linearGradient4766-8-0"/><linearGradient id="linearGradient4766-8-0"><stop style="stop-color:#784421;stop-opacity:1" id="stop4768-2-3" offset="0"/><stop style="stop-color:#3d2210;stop-opacity:0" id="stop4770-7-6" offset="1"/></linearGradient><linearGradient id="linearGradient5324-8-2" x1="-20.659" x2="-25.418" y1="37.909" y2="38.523" gradientUnits="userSpaceOnUse" xlink:href="#linearGradient4766-8-6"/><linearGradient id="linearGradient4766-8-6"><stop style="stop-color:#784421;stop-opacity:1" id="stop4768-2-0" offset="0"/><stop style="stop-color:#3d2210;stop-opacity:0" id="stop4770-7-4" offset="1"/></linearGradient><linearGradient id="linearGradient5324-8" x1="-20.659" x2="-25.418" y1="37.909" y2="38.523" gradientUnits="userSpaceOnUse" xlink:href="#linearGradient4766-8"/><linearGradient id="linearGradient4766-8"><stop style="stop-color:#784421;stop-opacity:1" id="stop4768-2" offset="0"/><stop style="stop-color:#3d2210;stop-opacity:0" id="stop4770-7" offset="1"/></linearGradient><linearGradient id="linearGradient5272" x1="165.868" x2="12.981" y1="23.65" y2="327.981" gradientTransform="matrix(0.87199948,0,0,0.87199948,2.3756772,1.6672408)" gradientUnits="userSpaceOnUse" xlink:href="#linearGradient5266"/><linearGradient id="linearGradient5266"><stop style="stop-color:#806600;stop-opacity:1" id="stop5268" offset="0"/><stop style="stop-color:#382d00;stop-opacity:1" id="stop5270" offset="1"/></linearGradient><linearGradient id="linearGradient3015" x1="10.096" x2="229.811" y1="329.423" y2="12.592" gradientTransform="matrix(0.87199948,0,0,0.87199948,2.3756772,1.6672408)" gradientUnits="userSpaceOnUse" xlink:href="#linearGradient3009"/><linearGradient id="linearGradient3009"><stop style="stop-color:#000;stop-opacity:1" id="stop3011" offset="0"/><stop style="stop-color:#a0872c;stop-opacity:1" id="stop3013" offset="1"/></linearGradient></defs><metadata id="metadata7"/><g id="layer1" transform="translate(44.245053,-0.31708717)"><flowRoot id="flowRoot3021" transform="translate(10.432266,0)" xml:space="preserve" style="font-size:40px;font-style:normal;font-weight:400;line-height:125%;letter-spacing:0;word-spacing:0;fill:#000;fill-opacity:1;stroke:none;font-family:Sans"><flowRegion id="flowRegion3023"><rect id="rect3025" width="151.925" height="235.58" x="50.001" y="60.189"/></flowRegion><flowPara id="flowPara3027"/></flowRoot><rect style="fill:#000;fill-opacity:1;fill-rule:nonzero;stroke:#fff;stroke-width:.8719995;stroke-opacity:0;display:inline" id="rect3004" width="209.28" height="296.48" x="2.376" y="2.166" rx="8.72" ry="8.72"/><rect style="fill:url(#linearGradient3015);fill-opacity:1;fill-rule:nonzero;stroke:#fff;stroke-width:.87666601;stroke-opacity:0;display:inline" id="rect3007" width="192.429" height="277.97" x="11.18" y="11.792"/><rect style="fill:url(#linearGradient5272);fill-opacity:1;fill-rule:nonzero;stroke:#fff;stroke-width:.86936414;stroke-opacity:0;display:inline" id="rect3017" width="187.147" height="273.463" x="13.887" y="13.993"/><rect style="fill:#000;fill-opacity:0;fill-rule:nonzero;stroke:#000;stroke-width:.8719995;stroke-opacity:1;display:inline" id="rect5293" width="181.529" height="267.053" x="16.63" y="16.84"/><path style="fill:#f55;fill-opacity:1;fill-rule:nonzero;stroke:#000;stroke-opacity:0;display:inline" id="path5297-7" d="m -93.751271,76.534889 a 2.8846545,2.8846545 0 0 1 -2.884654,2.884655 2.8846545,2.8846545 0 0 1 -2.884655,-2.884655 2.8846545,2.8846545 0 0 1 2.884655,-2.884654 2.8846545,2.8846545 0 0 1 2.884654,2.884654 z" transform="matrix(0.87199948,0,0,0.87199948,105.71762,211.63685)"/><path style="fill:url(#linearGradient5324-8);fill-opacity:1;fill-rule:nonzero;stroke:#000;stroke-opacity:0;display:inline" id="path5299-6-1" d="m -23.467867,38.493507 a 1.4573514,1.1418424 0 0 1 -1.457352,1.141843 1.4573514,1.1418424 0 0 1 -1.457351,-1.141843 1.4573514,1.1418424 0 0 1 1.457351,-1.141842 1.4573514,1.1418424 0 0 1 1.457352,1.141842 z" transform="matrix(-1.1516801,0.679836,-1.0169493,-1.7297998,31.445768,362.16737)"/><path style="fill:#f55;fill-opacity:1;fill-rule:nonzero;stroke:#000;stroke-opacity:0;display:inline" id="path5297-7-9" d="m -93.751271,76.534889 a 2.8846545,2.8846545 0 0 1 -2.884654,2.884655 2.8846545,2.8846545 0 0 1 -2.884655,-2.884655 2.8846545,2.8846545 0 0 1 2.884655,-2.884654 2.8846545,2.8846545 0 0 1 2.884654,2.884654 z" transform="matrix(0.87199948,0,0,0.87199948,277.4407,212.63361)"/><path style="fill:url(#linearGradient5324-8-2);fill-opacity:1;fill-rule:nonzero;stroke:#000;stroke-opacity:0;display:inline" id="path5299-6-1-4" d="m -23.467867,38.493507 a 1.4573514,1.1418424 0 0 1 -1.457352,1.141843 1.4573514,1.1418424 0 0 1 -1.457351,-1.141843 1.4573514,1.1418424 0 0 1 1.457351,-1.141842 1.4573514,1.1418424 0 0 1 1.457352,1.141842 z" transform="matrix(-1.1516801,0.679836,-1.0169493,-1.7297998,203.16885,363.16414)"/><path style="fill:#f55;fill-opacity:1;fill-rule:nonzero;stroke:#000;stroke-opacity:0;display:inline" id="path5297-7-2" d="m -93.751271,76.534889 a 2.8846545,2.8846545 0 0 1 -2.884654,2.884655 2.8846545,2.8846545 0 0 1 -2.884655,-2.884655 2.8846545,2.8846545 0 0 1 2.884655,-2.884654 2.8846545,2.8846545 0 0 1 2.884654,2.884654 z" transform="matrix(0.87199948,0,0,0.87199948,277.1368,-45.343722)"/><path style="fill:url(#linearGradient5324-8-6);fill-opacity:1;fill-rule:nonzero;stroke:#000;stroke-opacity:0;display:inline" id="path5299-6-1-45" d="m -23.467867,38.493507 a 1.4573514,1.1418424 0 0 1 -1.457352,1.141843 1.4573514,1.1418424 0 0 1 -1.457351,-1.141843 1.4573514,1.1418424 0 0 1 1.457351,-1.141842 1.4573514,1.1418424 0 0 1 1.457352,1.141842 z" transform="matrix(-1.1516801,0.679836,-1.0169493,-1.7297998,202.86495,105.18681)"/><path style="fill:#f55;fill-opacity:1;fill-rule:nonzero;stroke:#000;stroke-opacity:0;display:inline" id="path5297-7-1" d="m -93.751271,76.534889 a 2.8846545,2.8846545 0 0 1 -2.884654,2.884655 2.8846545,2.8846545 0 0 1 -2.884655,-2.884655 2.8846545,2.8846545 0 0 1 2.884655,-2.884654 2.8846545,2.8846545 0 0 1 2.884654,2.884654 z" transform="matrix(0.87199948,0,0,0.87199948,105.6435,-45.047277)"/><path style="fill:url(#linearGradient5324-8-8);fill-opacity:1;fill-rule:nonzero;stroke:#000;stroke-opacity:0;display:inline" id="path5299-6-1-49" d="m -23.467867,38.493507 a 1.4573514,1.1418424 0 0 1 -1.457352,1.141843 1.4573514,1.1418424 0 0 1 -1.457351,-1.141843 1.4573514,1.1418424 0 0 1 1.457351,-1.141842 1.4573514,1.1418424 0 0 1 1.457352,1.141842 z" transform="matrix(-1.1516801,0.679836,-1.0169493,-1.7297998,31.371657,105.48325)"/><path style="fill:#2c9be5;fill-opacity:1;fill-rule:nonzero;stroke:#000;stroke-opacity:1" id="path5461" d="M -14.904053,155.38211 A 69.231705,144.23273 0 0 1 -84.135757,299.61484 69.231705,144.23273 0 0 1 -153.36746,155.38211 69.231705,144.23273 0 0 1 -84.135757,11.149384 69.231705,144.23273 0 0 1 -14.904053,155.38211 Z" transform="matrix(1.2631217,0,0,0.87199948,213.6725,14.244327)"/><path style="fill:#c87137;fill-opacity:1;fill-rule:nonzero;stroke:#000;stroke-opacity:0" id="path5461-8" d="M -14.904053,155.38211 A 69.231705,144.23273 0 0 1 -84.135757,299.61484 69.231705,144.23273 0 0 1 -153.36746,155.38211 69.231705,144.23273 0 0 1 -84.135757,11.149384 69.231705,144.23273 0 0 1 -14.904053,155.38211 Z" transform="matrix(1.228342,0,0,0.85746409,211.0465,16.713831)"/><g style="font-size:456.36495972px;font-style:normal;font-variant:normal;font-weight:400;font-stretch:normal;line-height:125%;letter-spacing:0;word-spacing:0;fill:#fff;fill-opacity:1;stroke:none;font-family:Adobe Devanagari;-inkscape-font-specification:Adobe Devanagari" id="text3041"><path style="font-style:italic;fill:#fff;fill-opacity:1" id="path3046" d="m 79.328974,244.81143 c 11.875132,-0.17178 23.276816,-2.72509 34.205086,-7.65994 10.92805,-4.93485 20.99273,-11.22063 30.19407,-18.85736 14.8694,-12.81759 26.18753,-28.46241 33.9544,-46.93451 7.76653,-18.47196 11.67541,-37.06933 11.72666,-55.79218 -0.17195,-21.573012 -5.12073,-37.979182 -14.84634,-49.218557 -9.72596,-11.239028 -23.19814,-16.893446 -40.4166,-16.963272 -6.80586,0.06518 -14.19653,1.327911 -22.17203,3.788185 C 103.9985,55.634444 96.162168,58.90268 88.465187,62.978512 70.18341,72.569846 54.993544,87.425461 42.895541,107.5454 30.79746,127.66561 24.520963,151.65743 24.06603,179.52093 c -0.09287,17.83144 4.326677,33.03059 13.25865,45.5975 8.931905,12.56694 22.933322,19.13126 42.004294,19.693 z m 15.152743,-17.38109 c -12.381318,-0.22747 -21.712501,-5.06483 -27.993578,-14.5121 -6.281203,-9.44721 -9.428736,-22.13948 -9.44261,-38.07683 0.803078,-30.71856 6.160384,-54.73824 16.071935,-72.05909 9.911411,-17.320586 19.558276,-28.137331 28.940626,-32.450271 2.76212,-1.123286 5.59397,-1.996054 8.49556,-2.618305 2.90138,-0.621906 6.01178,-0.937588 9.33119,-0.947046 10.9002,-0.08339 19.73929,3.927626 26.5173,12.03306 6.77774,8.105756 10.26881,20.807308 10.47322,38.104692 -0.53402,26.84701 -5.59422,50.03105 -15.18059,69.5522 -9.58666,19.52126 -20.49625,32.06497 -32.72881,37.63117 -4.38252,2.11694 -9.21059,3.23111 -14.484243,3.34252 z"/></g></g></svg>