<svg xmlns="http://www.w3.org/2000/svg" xmlns:svg="http://www.w3.org/2000/svg" xmlns:xlink="http://www.w3.org/1999/xlink" id="svg2" width="300" height="300" version="1.0"><defs id="defs4"><linearGradient id="linearGradient3841"><stop style="stop-color:white;stop-opacity:1" id="stop3843" offset="0"/><stop style="stop-color:#fefce9;stop-opacity:0" id="stop3845" offset="1"/></linearGradient><linearGradient id="linearGradient3813"><stop id="stop3815" offset="0" style="stop-color:#0060c8;stop-opacity:0"/><stop style="stop-color:#0062a2;stop-opacity:.40000001" id="stop4577" offset=".5"/><stop id="stop4579" offset=".75" style="stop-color:#005994;stop-opacity:.60000002"/><stop id="stop3817" offset="1" style="stop-color:black;stop-opacity:.80000001"/></linearGradient><linearGradient id="linearGradient3779"><stop style="stop-color:#0077ec;stop-opacity:1" id="stop3781" offset="0"/><stop style="stop-color:#78afff;stop-opacity:1" id="stop3783" offset="1"/></linearGradient><linearGradient id="linearGradient3785" x1="1.01" x2="300" y1="2.005" y2="300" gradientUnits="userSpaceOnUse" xlink:href="#linearGradient3779"/><radialGradient id="radialGradient3819" cx="150" cy="150" r="150" fx="150" fy="150" gradientUnits="userSpaceOnUse" xlink:href="#linearGradient3813"/><linearGradient id="linearGradient3847" x1="150" x2="150" y1=".455" y2="299.544" gradientUnits="userSpaceOnUse" xlink:href="#linearGradient3841"/></defs><metadata id="metadata7"/><g id="layer1" style="display:inline"><path id="path2760" d="m 300,150 a 150,150 0 1 1 -300,0 150,150 0 1 1 300,0 z" style="fill:url(#linearGradient3785);fill-opacity:1;fill-rule:evenodd;stroke:none"/><path style="fill:url(#linearGradient3785);fill-opacity:1;fill-rule:evenodd;stroke:none" id="path3788" d="m 300,150 a 150,150 0 1 1 -300,0 150,150 0 1 1 300,0 z"/></g><g id="layer2" style="display:inline"><path style="fill:url(#radialGradient3819);fill-opacity:1;fill-rule:evenodd;stroke:none" id="path3790" d="m 300,150 a 150,150 0 1 1 -300,0 150,150 0 1 1 300,0 z"/></g><g id="layer3" style="display:inline"><path id="path3821" d="m 300,150 a 150,150 0 1 1 -300,0 150,150 0 1 1 300,0 z" transform="matrix(0.649475,0,0,0.476763,52.5787,2)" style="fill:url(#linearGradient3847);fill-opacity:1;fill-rule:evenodd;stroke:none"/></g></svg>