<svg xmlns="http://www.w3.org/2000/svg" xmlns:svg="http://www.w3.org/2000/svg" xmlns:xlink="http://www.w3.org/1999/xlink" id="svg2" width="64" height="64" version="1.1"><defs id="defs4"><linearGradient id="linearGradient3709"><stop style="stop-color:#4d4d4d;stop-opacity:1" id="stop3711" offset="0"/><stop style="stop-color:white;stop-opacity:1" id="stop3713" offset="1"/></linearGradient><linearGradient id="linearGradient3699"><stop style="stop-color:#ececec;stop-opacity:1" id="stop3701" offset="0"/><stop style="stop-color:#ececec;stop-opacity:0" id="stop3703" offset="1"/></linearGradient><linearGradient id="linearGradient3632"><stop style="stop-color:#c87137;stop-opacity:1" id="stop3634" offset="0"/><stop style="stop-color:#c87137;stop-opacity:0" id="stop3636" offset="1"/></linearGradient><linearGradient id="linearGradient3622"><stop style="stop-color:#f9f9f9;stop-opacity:1" id="stop3624" offset="0"/><stop style="stop-color:#f9f9f9;stop-opacity:0" id="stop3626" offset="1"/></linearGradient><linearGradient id="linearGradient3726" x1="22.288" x2="49.489" y1="35.506" y2="49.106" gradientUnits="userSpaceOnUse" xlink:href="#linearGradient3709"/><linearGradient id="linearGradient3728" x1="30.598" x2="30.598" y1="8.924" y2="21.546" gradientUnits="userSpaceOnUse" xlink:href="#linearGradient3622"/><linearGradient id="linearGradient3730" x1="28.43" x2="29.96" y1="47.809" y2="47.809" gradientUnits="userSpaceOnUse" xlink:href="#linearGradient3632"/><linearGradient id="linearGradient3732" x1="29.216" x2="31.852" y1="1021.956" y2="1021.956" gradientUnits="userSpaceOnUse" xlink:href="#linearGradient3699"/><linearGradient id="linearGradient3911" x1="29.216" x2="31.852" y1="1021.956" y2="1021.956" gradientTransform="translate(713.20829,-318.19428)" gradientUnits="userSpaceOnUse" xlink:href="#linearGradient3699"/><linearGradient id="linearGradient3928" x1="22.288" x2="49.489" y1="35.506" y2="49.106" gradientUnits="userSpaceOnUse" xlink:href="#linearGradient3709"/><linearGradient id="linearGradient3930" x1="30.598" x2="30.598" y1="8.924" y2="21.546" gradientUnits="userSpaceOnUse" xlink:href="#linearGradient3622"/><linearGradient id="linearGradient3932" x1="28.43" x2="29.96" y1="47.809" y2="47.809" gradientUnits="userSpaceOnUse" xlink:href="#linearGradient3632"/><linearGradient id="linearGradient3934" x1="29.216" x2="31.852" y1="1021.956" y2="1021.956" gradientTransform="translate(713.20829,-318.19428)" gradientUnits="userSpaceOnUse" xlink:href="#linearGradient3699"/></defs><metadata id="metadata7"/><g id="layer2"><g style="fill:red;fill-opacity:1;stroke:#000;stroke-width:.30000001;stroke-miterlimit:4;stroke-opacity:1;stroke-dasharray:none" id="g3936"><path id="path3946" d="M -11.729084,0.76495424 L -1.0199203,-421.92491 L -1.5309297,-421.89731 L -17.73339,4.4426247 z" style="fill:#afafde;fill-rule:evenodd;stroke:none"/><path id="path3942" d="M -11.729084,5241.4272 L -1.0199203,33.784832 L -1.0199203,-421.92491 L -11.729084,0.76495424 z" style="fill:#8686bf;fill-rule:evenodd;stroke:none"/><path id="path3938" d="M -11.729084,5241.4272 L -11.729084,0.76495424 L -17.73339,4.4426247 L -17.73339,5286.737 z" style="fill:#353564;fill-rule:evenodd;stroke:none"/><path id="path3940" d="M -11.729084,5241.4272 L -1.0199203,33.784832 L -1.5309297,34.124972 L -17.73339,5286.737 z" style="fill:#4d4d9f;fill-rule:evenodd;stroke:none"/><path id="path3948" d="M -17.73339,5286.737 L -1.5309297,34.124972 L -1.5309297,-421.89731 L -17.73339,4.4426247 z" style="fill:#e9e9ff;fill-rule:evenodd;stroke:none"/><path id="path3944" d="M -1.0199203,33.784832 L -1.0199203,-421.92491 L -1.5309297,-421.89731 L -1.5309297,34.124972 z" style="fill:#d7d7ff;fill-rule:evenodd;stroke:none"/></g><path style="fill:red;fill-opacity:1;stroke:#cd3535;stroke-width:5.8479352000000002;stroke-miterlimit:4;stroke-opacity:1;stroke-dasharray:none" id="path3787" d="M 52.385908,50.646333 C 62.721799,39.279033 61.886144,21.695001 50.518842,11.359112 39.151542,1.0232223 21.567509,1.8588773 11.231623,13.22618 0.89573232,24.593479 1.7313874,42.177512 13.098689,52.5134 c 11.3673,10.335889 28.951332,9.500234 39.287219,-1.867067 z M 49.738687,48.239307 C 41.198715,57.631478 26.946973,58.753059 17.056847,51.15466 L 49.541588,15.428288 c 8.502064,9.124975 8.737071,23.418851 0.197099,32.811019 z M 46.560682,12.717855 14.075941,48.444228 C 5.5738777,39.31925 5.3388704,25.025377 13.878842,15.633206 22.418813,6.2410344 36.670557,5.1194531 46.560682,12.717855 z"/></g></svg>