<svg xmlns="http://www.w3.org/2000/svg" xmlns:svg="http://www.w3.org/2000/svg" id="svg2" width="48" height="48" version="1.0"><metadata id="metadata7"/><g id="layer1"><g id="g2547"><g id="g2551" transform="translate(0.2014828,0.2890558)"><path style="fill:#000" id="path2693" d="m 23.0625,7.875 c -2.309245,0.049099 -4.522809,0.469358 -6.125,1.28125 l -1.625,0.8125 -3,2.9375 c -4.4036271,4.810187 -5.7159942,14.310988 -2.03289,16.192421 0.470391,0.240289 2.475497,1.006426 3.728817,1.227998 2.521045,0.445688 2.327223,0.322567 2.787218,1.340469 0.238995,0.528863 0.09446,1.428157 -0.0144,3.364112 -0.222151,3.951055 -0.06236,4.424776 1.59375,4.75 1.098431,0.21571 1.347302,-0.472438 1.21875,-3.15625 -0.115618,-2.413774 0.583332,-2.187741 1.1875,0.375 0.547478,2.322281 0.410725,2.936824 1.34375,2.9375 0.919623,6.65e-4 1.076314,-0.818043 1.34375,-3 0.353869,-2.887142 1.125,-3.139658 1.125,-0.375 0,2.08688 -0.222077,3.589602 1.6875,3.40625 1.132862,-0.108774 1.082149,-3.370508 0.9375,-4.09375 -0.121253,-0.606271 -0.04263,-0.84375 0.25,-0.84375 0.538278,0 0.77605,0.936782 0.78125,3.0625 0.0023,0.939922 0.100607,1.819357 0.21875,1.9375 0.257103,0.257101 1.968476,-0.05495 2.375,-0.4375 0.16137,-0.151853 0.01366,-2.350878 0.21875,-5 0.35428,-4.576122 1.366108,-2.962194 4.245673,-3.85919 4.126605,-1.285455 4.289077,-3.901867 4.285577,-7.64081 -0.0033,-3.474911 -1.444977,-7.288916 -3.75,-9.9375 l -1.0625,-1.21875 -1.875,-1.5 C 31.003675,8.7156929 26.911241,7.7931682 23.0625,7.875 z M 15.625,19.03125 c 3.394247,0 7.005748,2.293983 4.9375,3.96875 -0.883048,0.715048 -6.772942,-0.473271 -8.34375,-1.15625 -2.8401606,-1.234886 -0.0067,-2.8125 3.40625,-2.8125 z M 30.40625,19.625 c 0.636388,-0.004 1.310094,0.03125 1.9375,0.03125 3.145949,0 6.024182,0.340703 3.875,2.03125 -0.761324,0.598858 -1.605395,1.78125 -5.125,1.78125 -4.382431,0 -4.28125,0.0393 -4.28125,-1.625 0,-1.934908 1.684585,-2.206867 3.59375,-2.21875 z M 24,26.086963 24.75,27.59375 25.46711,29.015215 23.96875,28.875 22.336963,28.850537 23.25,27.5625 24,26.086963 z" transform="translate(-0.2014828,-0.2890558)"/><rect style="fill:#fff;fill-opacity:1;stroke:none" id="rect3702" width="3.074" height="9.936" x="41.499" y="27.69" transform="translate(-0.2014828,-0.2890558)"/></g></g></g></svg>