<svg xmlns="http://www.w3.org/2000/svg" xmlns:svg="http://www.w3.org/2000/svg" id="svg2" width="64" height="64" version="1.1"><metadata id="metadata18"/><path style="fill:#f2f2f2;stroke:#000;stroke-width:.36091354;stroke-miterlimit:4;stroke-opacity:1;stroke-dasharray:none" id="rect4310" d="M 10.735636,2.7007755 L 10.735636,59.759195 L 47.991073,59.759195 L 53.259135,54.575403 L 53.259135,2.7007755 L 10.735636,2.7007755 z"/><path style="opacity:.43930634;fill:#000;stroke:none" id="rect4314-9-2" d="M 47.539263,54.178486 L 53.43341,54.178486 L 47.539263,59.914352 L 47.539263,54.178486 z"/><path style="fill:#f2f2f2;stroke:#000;stroke-width:.33989298;stroke-miterlimit:4;stroke-opacity:1;stroke-dasharray:none" id="rect4314-9-5" d="M 48.080899,54.683517 L 53.016926,54.683517 L 48.080899,59.569868 L 48.080899,54.683517 z"/><path style="opacity:.43930634;fill:#000;stroke:none" id="rect4120-3" d="M 7.8062475,55.039312 L 7.8339835,55.072982 L 4.5689682,57.65671 L 5.2398545,58.476426 L 6.3020905,59.774252 L 6.9450675,60.559879 L 10.210081,57.976151 L 35.079771,38.295796 L 35.107506,38.329466 L 37.205296,34.249681 L 32.67559,35.358116 L 7.8059005,55.03861 z"/><rect style="fill:#fc0;stroke:#000;stroke-width:.28297317;stroke-miterlimit:4;stroke-opacity:1;stroke-dasharray:none" id="rect4120" width="31.702" height="3.781" x="-29.504" y="46.464" transform="matrix(0.78188456,-0.62342324,0.63622425,0.77150419,0,0)"/><rect style="fill:#4d4d4d;stroke:#000;stroke-width:.28297317;stroke-miterlimit:4;stroke-opacity:1;stroke-dasharray:none" id="rect4122" width="4.171" height="3.762" x="-33.674" y="46.477" transform="matrix(0.78188456,-0.62342324,0.63622425,0.77150419,0,0)"/><path style="fill:#ffe680;stroke:#000;stroke-width:.28295398;stroke-miterlimit:4;stroke-opacity:1;stroke-dasharray:none" id="rect4124" d="M 31.271515,34.459836 L 35.787845,33.312261 L 33.712851,37.420244 L 31.271515,34.459836 z"/><path style="fill:#000;stroke:#000;stroke-width:.28295398;stroke-miterlimit:4;stroke-opacity:1;stroke-dasharray:none" id="rect4127" d="M 34.451031,33.663829 L 35.778335,33.329236 L 35.171353,34.537276 L 34.451031,33.663829 z"/><rect style="fill:#333;stroke:#000;stroke-width:.28297317;stroke-miterlimit:4;stroke-opacity:1;stroke-dasharray:none" id="rect4122-4" width="4.171" height="1.699" x="-33.669" y="47.534" transform="matrix(0.78188456,-0.62342324,0.63622425,0.77150419,0,0)"/><rect style="fill:#4d4d4d;stroke:#000;stroke-width:.28297317;stroke-miterlimit:4;stroke-opacity:1;stroke-dasharray:none" id="rect4122-8" width="4.171" height="1.005" x="-33.669" y="49.24" transform="matrix(0.78188456,-0.62342324,0.63622425,0.77150419,0,0)"/><rect style="fill:#a80;stroke:#000;stroke-width:.28297317;stroke-miterlimit:4;stroke-opacity:1;stroke-dasharray:none" id="rect4122-4-7" width="31.643" height="1.699" x="-29.509" y="47.534" transform="matrix(0.78188456,-0.62342324,0.63622425,0.77150419,0,0)"/></svg>