<svg xmlns="http://www.w3.org/2000/svg" xmlns:svg="http://www.w3.org/2000/svg" xmlns:xlink="http://www.w3.org/1999/xlink" id="svg2508" width="64" height="64" version="1.1"><defs id="defs2510"><linearGradient id="linearGradient5717"><stop style="stop-color:#003580;stop-opacity:1" id="stop5719" offset="0"/><stop id="stop5727" offset=".253" style="stop-color:#055897;stop-opacity:1"/><stop id="stop5725" offset=".5" style="stop-color:#00a4ff;stop-opacity:1"/><stop id="stop5733" offset=".75" style="stop-color:#055897;stop-opacity:1"/><stop style="stop-color:#003580;stop-opacity:1" id="stop5721" offset="1"/></linearGradient><linearGradient id="linearGradient5723" x1="339.94" x2="459.273" y1="482.588" y2="355.508" gradientTransform="matrix(0,0.1263349,-0.1263349,0,74.367722,-7.5042832)" gradientUnits="userSpaceOnUse" xlink:href="#linearGradient5717"/><linearGradient id="linearGradient3234"><stop style="stop-color:#6f6f6f;stop-opacity:1" id="stop3236" offset="0"/><stop id="stop3242" offset=".48" style="stop-color:#e6e6e6;stop-opacity:1"/><stop style="stop-color:#fff;stop-opacity:1" id="stop3244" offset=".5"/><stop id="stop3286" offset=".75" style="stop-color:#bebebe;stop-opacity:1"/><stop style="stop-color:#494949;stop-opacity:1" id="stop3238" offset="1"/></linearGradient><linearGradient id="linearGradient5120" x1="202.992" x2="251.278" y1="395.232" y2="395.232" gradientTransform="matrix(8.9332267e-2,8.9332267e-2,8.9332267e-2,-8.9332267e-2,-16.525693,40.126552)" gradientUnits="userSpaceOnUse" xlink:href="#linearGradient3234"/></defs><metadata id="metadata2513"/><g id="layer1"><g id="g2536" transform="translate(-0.1818183,-3.0952293e-8)"><path style="fill:#000;fill-opacity:1;stroke:#000;stroke-width:3.4920001;stroke-linecap:round;stroke-linejoin:miter;stroke-miterlimit:4;stroke-opacity:1;stroke-dasharray:none;stroke-dashoffset:60.01653385" id="path5116" d="m 60.100711,4.0811082 -8.925773,4.066985 C 41.14173,19.502755 31.186489,31.772714 19.035138,42.39632 16.923235,39.989095 14.162681,36.349247 12.592568,33.629733 L 7.4098614,38.84843 c 0,0 4.1855936,1.798155 5.3626626,2.627344 1.177067,0.829192 3.640464,3.136411 3.640464,3.136411 0,0 -6.9973489,9.844274 -12.8181741,11.40396 -1.8723058,0.501682 4.0691751,6.443164 4.5708593,4.570859 1.5576526,-5.813242 11.1468308,-13.589562 11.1468308,-13.589562 0,0 2.672321,3.126813 3.501514,4.30388 0.82919,1.177069 2.519371,5.470634 2.519371,5.470634 L 30.552085,51.58925 C 27.830216,50.017778 24.343721,47.501755 21.950055,45.40381 32.445673,33.693842 43.199214,24.522178 56.033726,13.00688 z"/></g></g></svg>