<svg xmlns="http://www.w3.org/2000/svg" xmlns:svg="http://www.w3.org/2000/svg" xmlns:xlink="http://www.w3.org/1999/xlink" id="svg2" width="64" height="64" version="1.1"><defs id="defs4"><linearGradient id="linearGradient3709"><stop style="stop-color:#4d4d4d;stop-opacity:1" id="stop3711" offset="0"/><stop style="stop-color:#4d4d4d;stop-opacity:0" id="stop3713" offset="1"/></linearGradient><linearGradient id="linearGradient3699"><stop style="stop-color:#ececec;stop-opacity:1" id="stop3701" offset="0"/><stop style="stop-color:#ececec;stop-opacity:0" id="stop3703" offset="1"/></linearGradient><linearGradient id="linearGradient3632"><stop style="stop-color:#c87137;stop-opacity:1" id="stop3634" offset="0"/><stop style="stop-color:#c87137;stop-opacity:0" id="stop3636" offset="1"/></linearGradient><linearGradient id="linearGradient3622"><stop style="stop-color:#f9f9f9;stop-opacity:1" id="stop3624" offset="0"/><stop style="stop-color:#f9f9f9;stop-opacity:0" id="stop3626" offset="1"/></linearGradient><linearGradient id="linearGradient3628" x1="30.598" x2="30.598" y1="8.924" y2="21.546" gradientUnits="userSpaceOnUse" xlink:href="#linearGradient3622"/><linearGradient id="linearGradient3638" x1="28.43" x2="29.96" y1="47.809" y2="47.809" gradientUnits="userSpaceOnUse" xlink:href="#linearGradient3632"/><linearGradient id="linearGradient3705" x1="29.216" x2="31.852" y1="1021.956" y2="1021.956" gradientUnits="userSpaceOnUse" xlink:href="#linearGradient3699"/><linearGradient id="linearGradient3715" x1="22.288" x2="49.489" y1="35.506" y2="49.106" gradientUnits="userSpaceOnUse" xlink:href="#linearGradient3709"/><linearGradient id="linearGradient3730" x1="28.43" x2="29.96" y1="47.809" y2="47.809" gradientUnits="userSpaceOnUse" xlink:href="#linearGradient3632"/><linearGradient id="linearGradient3732" x1="29.216" x2="31.852" y1="1021.956" y2="1021.956" gradientUnits="userSpaceOnUse" xlink:href="#linearGradient3699"/></defs><metadata id="metadata7"/><g id="layer1" transform="translate(0,-988.36218)"><g id="g3717" transform="matrix(0.70710678,0.70710678,-0.70710678,0.70710678,729.31175,279.31708)"><path id="path2816" d="m 49.338646,35.505978 a 13.450199,13.450199 0 1 1 -26.900398,0 13.450199,13.450199 0 1 1 26.900398,0 z" transform="matrix(1.7216859,0,0,1.7216859,-37.751505,955.72849)" style="fill:#222326;fill-opacity:0;stroke:#222326;stroke-width:1.90745997;stroke-miterlimit:4;stroke-opacity:1;stroke-dasharray:none"/><path id="path2826" d="m 18.613546,52.207172 a 2.5498009,12.302789 0 1 1 -5.099601,0 2.5498009,12.302789 0 1 1 5.099601,0 z" transform="matrix(-0.08671958,-1.1164509,1.1164509,-0.08671958,2.9138372,1039.7631)" style="fill:#222326;fill-opacity:1;stroke:#222326;stroke-width:.30000001;stroke-miterlimit:4;stroke-opacity:1;stroke-dasharray:none"/></g></g></svg>