<svg xmlns="http://www.w3.org/2000/svg" xmlns:svg="http://www.w3.org/2000/svg" xmlns:xlink="http://www.w3.org/1999/xlink" id="svg2825" width="500" height="500" version="1.1"><defs id="defs2827"><linearGradient id="linearGradient3176" x1="348.142" x2="362.824" y1="241.256" y2="226.275" gradientUnits="userSpaceOnUse" xlink:href="#linearGradient3170"/><linearGradient id="linearGradient3170"><stop style="stop-color:#fff;stop-opacity:1" id="stop3172" offset="0"/><stop style="stop-color:#fff;stop-opacity:0" id="stop3174" offset="1"/></linearGradient></defs><metadata id="metadata2830"/><g id="layer1" transform="translate(0,-552.36218)"><path style="fill:#000;fill-opacity:1;stroke:#000;stroke-width:10;stroke-linecap:square;stroke-linejoin:miter;stroke-miterlimit:4;stroke-opacity:1;stroke-dasharray:none" id="path3609" d="m 454.28572,549.50507 a 71.428574,71.428574 0 1 1 -142.85715,0 71.428574,71.428574 0 1 1 142.85715,0 z" transform="matrix(1.278781,0,0,1.278781,-239.59045,89.665546)"/><g id="g3178" transform="matrix(4.0314732,0,0,4.0314732,-693.67321,-408.8113)"><path id="path3159" d="m 234.78774,331.58001 c -31.87684,0.0325 -57.71719,-31.08607 -58.23077,-32.66642 -1.24408,-3.82817 25.38817,-32.75179 57.265,-32.78433 31.87683,-0.0325 58.68772,30.04142 58.23076,32.66642 -0.17904,1.02851 -24.29715,32.20961 -55.54932,32.76812" style="fill:none;stroke:#000;stroke-width:6.60500002;stroke-linecap:round;stroke-miterlimit:4;stroke-opacity:1;stroke-dasharray:none"/></g></g></svg>