<svg xmlns="http://www.w3.org/2000/svg" xmlns:svg="http://www.w3.org/2000/svg" xmlns:xlink="http://www.w3.org/1999/xlink" id="svg2" width="122.148" height="72.056" version="1.0"><defs id="defs4"><linearGradient id="linearGradient3170"><stop style="stop-color:#fff;stop-opacity:1" id="stop3172" offset="0"/><stop style="stop-color:#fff;stop-opacity:0" id="stop3174" offset="1"/></linearGradient><linearGradient id="linearGradient3176" x1="348.142" x2="362.824" y1="241.256" y2="226.275" gradientUnits="userSpaceOnUse" xlink:href="#linearGradient3170"/></defs><metadata id="metadata7"/><g id="layer1" transform="translate(-173.21257,-262.82673)"><g id="g3178"><path id="path3166" d="M 352.96016,223.72064 A 11.219209,10.958297 0 1 1 352.85806,223.72622" transform="matrix(1.7416,0,0,1.7416,-381.027,-111.162)" style="opacity:1;fill:#0000de;fill-opacity:1;stroke:none;stroke-width:6.60500002;stroke-linecap:round;stroke-miterlimit:4;stroke-dasharray:none;stroke-opacity:1"/><path id="path3159" d="M 234.78774,331.58001 C 202.9109,331.61255 177.07055,300.49394 176.55697,298.91359 C 175.31289,295.08542 201.94514,266.1618 233.82197,266.12926 C 265.6988,266.09672 292.50969,296.17068 292.05273,298.79568 C 291.87369,299.82419 267.75558,331.00529 236.50341,331.5638" style="fill:none;fill-opacity:1;stroke:#000;stroke-width:6.60500002;stroke-linecap:round;stroke-miterlimit:4;stroke-dasharray:none;stroke-opacity:1"/><path id="path3168" d="M 352.96016,223.72064 A 11.219209,10.958297 0 1 1 352.85806,223.72622" transform="matrix(1.7416,0,0,1.7416,-380.897,-111.409)" style="opacity:1;fill:url(#linearGradient3176);fill-opacity:1;stroke:none;stroke-width:6.60500002;stroke-linecap:round;stroke-miterlimit:4;stroke-dasharray:none;stroke-opacity:1"/><path id="path3162" d="M 363.19295,240.24179 A 11.219209,10.958297 0 1 1 352.85806,223.72622" transform="matrix(1.38447,0,0,1.38447,-254.533,-26.8231)" style="opacity:1;fill:none;fill-opacity:1;stroke:#000;stroke-width:6.60500002;stroke-linecap:round;stroke-miterlimit:4;stroke-dasharray:none;stroke-opacity:1"/></g></g></svg>