<svg xmlns="http://www.w3.org/2000/svg" xmlns:osb="http://www.openswatchbook.org/uri/2009/osb" xmlns:svg="http://www.w3.org/2000/svg" xmlns:xlink="http://www.w3.org/1999/xlink" id="svg2" width="100%" height="100%" enable-background="new 0 0 64 64" version="1.1" viewBox="0 0 64 64"><metadata id="metadata12"/><defs id="defs10"><linearGradient id="linearGradient5225"><stop style="stop-color:#fff;stop-opacity:1" id="stop5227" offset="0"/><stop style="stop-color:#fff;stop-opacity:0" id="stop5229" offset="1"/></linearGradient><linearGradient id="linearGradient5219" osb:paint="solid"><stop style="stop-color:#fff;stop-opacity:1" id="stop5221" offset="0"/></linearGradient><linearGradient id="linearGradient3758"><stop id="stop3760" offset="0" style="stop-color:#0fbb00;stop-opacity:1"/><stop id="stop3762" offset="1" style="stop-color:#064400;stop-opacity:1"/></linearGradient><linearGradient id="linearGradient3750"><stop style="stop-color:#ece400;stop-opacity:1" id="stop3752" offset="0"/><stop style="stop-color:#ece400;stop-opacity:0" id="stop3754" offset="1"/></linearGradient><linearGradient id="linearGradient3756-1" x1="1.96" x2="60.456" y1="31.261" y2="31.261" gradientUnits="userSpaceOnUse" xlink:href="#linearGradient3758-7"/><linearGradient id="linearGradient3758-7"><stop id="stop3760-4" offset="0" style="stop-color:#ece400;stop-opacity:1"/><stop id="stop3762-0" offset="1" style="stop-color:#ec8b00;stop-opacity:1"/></linearGradient></defs><path id="path4-9" d="M 61.442826,23.621762 38.532402,23.515555 31.556101,0.331013 24.578789,23.515555 1.6673502,23.621765 20.267785,38.422001 10.863888,63.668987 31.556101,47.626631 52.258426,63.668987 42.843404,38.422001 z" style="fill:#000;fill-opacity:1"/><path id="path4" d="M 55.041981,25.814432 36.921945,25.730432 31.404334,7.3935963 25.885923,25.730432 7.7650846,25.814434 22.476316,37.520057 15.0387,57.488097 31.404334,44.800071 47.777965,57.488097 40.331551,37.520057 z" style="fill:#fff;fill-opacity:1;fill-rule:nonzero"/><path id="path4-1" d="M 56.276895,25.211993 37.3433,24.856806 31.486705,5.7742084 c 0.04705,37.4359336 -0.01851,2.6744908 -0.0678,40.1841446 L 48.19932,58.580578 40.956295,37.527792 z" style="fill:#000;fill-opacity:1;fill-rule:nonzero"/></svg>