<svg xmlns="http://www.w3.org/2000/svg" xmlns:svg="http://www.w3.org/2000/svg" xmlns:xlink="http://www.w3.org/1999/xlink" id="svg4576" width="64" height="64" version="1.1"><defs id="defs4578"><linearGradient id="linearGradient6482"><stop style="stop-color:#fff;stop-opacity:1" id="stop6484" offset="0"/><stop style="stop-color:#0f0;stop-opacity:0" id="stop6486" offset="1"/></linearGradient><linearGradient id="linearGradient6464"><stop style="stop-color:#0061ff;stop-opacity:1" id="stop6466" offset="0"/><stop style="stop-color:#001c4c;stop-opacity:1" id="stop6468" offset="1"/></linearGradient><linearGradient id="linearGradient6470" x1="32.091" x2="31.091" y1="1.818" y2="62.909" gradientTransform="matrix(1.0202704,0,0,1.0264038,-0.559587,-1.1272497)" gradientUnits="userSpaceOnUse" xlink:href="#linearGradient6464"/><linearGradient id="linearGradient6488" x1="32.182" x2="32.182" y1="3.284" y2="13.026" gradientTransform="matrix(1.0489761,0,0,1.0704672,-1.576142,-1.64517)" gradientUnits="userSpaceOnUse" xlink:href="#linearGradient6482"/></defs><metadata id="metadata4581"/><g id="layer1"><rect style="fill:url(#linearGradient6470);fill-opacity:1;fill-rule:nonzero;stroke:#000;stroke-width:1.02333248;stroke-opacity:1" id="rect6462" width="62.886" height="62.704" x=".739" y=".739" ry="5.785"/><rect style="fill:url(#linearGradient6488);fill-opacity:1;fill-rule:nonzero;stroke:none" id="rect6472" width="61.009" height="13.601" x="1.677" y="1.87" ry="4.858"/><g id="g6424" transform="matrix(1.1854009,0,0,1.1925269,-16.760601,-47.609371)"><path style="opacity:.4;fill:red;fill-opacity:1;fill-rule:nonzero;stroke:red" id="use6280" d="m 29.454545,15.545455 c 0,6.376379 -5.169076,11.545455 -11.545455,11.545455 -6.376379,0 -11.5454549,-5.169076 -11.5454549,-11.545455 C 6.3636351,9.1690763 11.532711,4 17.90909,4 24.285469,4 29.454545,9.1690763 29.454545,15.545455 z" transform="translate(22.909092,39.272728)"/><path style="opacity:.39599998;fill:#ff2900;fill-opacity:1;fill-rule:nonzero;stroke:#ff2900" id="use6282" d="m 29.454545,15.545455 c 0,6.376379 -5.169076,11.545455 -11.545455,11.545455 -6.376379,0 -11.5454549,-5.169076 -11.5454549,-11.545455 C 6.3636351,9.1690763 11.532711,4 17.90909,4 24.285469,4 29.454545,9.1690763 29.454545,15.545455 z" transform="matrix(0.9848078,0.1736482,-0.1736482,0.9848078,27.885457,36.574419)"/><path style="opacity:.39200003;fill:#ff5200;fill-opacity:1;fill-rule:nonzero;stroke:#ff5200" id="use6284" d="m 29.454545,15.545455 c 0,6.376379 -5.169076,11.545455 -11.545455,11.545455 -6.376379,0 -11.5454549,-5.169076 -11.5454549,-11.545455 C 6.3636351,9.1690763 11.532711,4 17.90909,4 24.285469,4 29.454545,9.1690763 29.454545,15.545455 z" transform="matrix(0.9396926,0.3420201,-0.3420201,0.9396926,33.25478,34.78124)"/><path style="opacity:.38800001;fill:#ff7c00;fill-opacity:1;fill-rule:nonzero;stroke:#ff7c00" id="use6286" d="m 29.454545,15.545455 c 0,6.376379 -5.169076,11.545455 -11.545455,11.545455 -6.376379,0 -11.5454549,-5.169076 -11.5454549,-11.545455 C 6.3636351,9.1690763 11.532711,4 17.90909,4 24.285469,4 29.454545,9.1690763 29.454545,15.545455 z" transform="matrix(0.8660254,0.5,-0.5,0.8660254,38.85391,33.947676)"/><path style="opacity:.38399999;fill:orange;fill-opacity:1;fill-rule:nonzero;stroke:orange" id="use6288" d="m 29.454545,15.545455 c 0,6.376379 -5.169076,11.545455 -11.545455,11.545455 -6.376379,0 -11.5454549,-5.169076 -11.5454549,-11.545455 C 6.3636351,9.1690763 11.532711,4 17.90909,4 24.285469,4 29.454545,9.1690763 29.454545,15.545455 z" transform="matrix(0.7660444,0.6427876,-0.6427876,0.7660444,44.512724,34.099055)"/><path style="opacity:.37999998;fill:#ffcf00;fill-opacity:1;fill-rule:nonzero;stroke:#ffcf00" id="use6290" d="m 29.454545,15.545455 c 0,6.376379 -5.169076,11.545455 -11.545455,11.545455 -6.376379,0 -11.5454549,-5.169076 -11.5454549,-11.545455 C 6.3636351,9.1690763 11.532711,4 17.90909,4 24.285469,4 29.454545,9.1690763 29.454545,15.545455 z" transform="matrix(0.6427876,0.7660444,-0.7660444,0.6427876,50.059282,35.230777)"/><path style="opacity:.37600002;fill:#fff800;fill-opacity:1;fill-rule:nonzero;stroke:#fff800" id="use6292" d="m 29.454545,15.545455 c 0,6.376379 -5.169076,11.545455 -11.545455,11.545455 -6.376379,0 -11.5454549,-5.169076 -11.5454549,-11.545455 C 6.3636351,9.1690763 11.532711,4 17.90909,4 24.285469,4 29.454545,9.1690763 29.454545,15.545455 z" transform="matrix(0.5,0.8660254,-0.8660254,0.5,55.325053,37.308456)"/><path style="opacity:.37200006;fill:#df0;fill-opacity:1;fill-rule:nonzero;stroke:#df0" id="use6294" d="m 29.454545,15.545455 c 0,6.376379 -5.169076,11.545455 -11.545455,11.545455 -6.376379,0 -11.5454549,-5.169076 -11.5454549,-11.545455 C 6.3636351,9.1690763 11.532711,4 17.90909,4 24.285469,4 29.454545,9.1690763 29.454545,15.545455 z" transform="matrix(0.3420201,0.9396926,-0.9396926,0.3420201,60.150041,40.268961)"/><path style="opacity:.36799999;fill:#b4ff00;fill-opacity:1;fill-rule:nonzero;stroke:#b4ff00" id="use6296" d="m 29.454545,15.545455 c 0,6.376379 -5.169076,11.545455 -11.545455,11.545455 -6.376379,0 -11.5454549,-5.169076 -11.5454549,-11.545455 C 6.3636351,9.1690763 11.532711,4 17.90909,4 24.285469,4 29.454545,9.1690763 29.454545,15.545455 z" transform="matrix(0.1736482,0.9848078,-0.9848078,0.1736482,64.387638,44.022341)"/><path style="opacity:.36400003;fill:#8aff00;fill-opacity:1;fill-rule:nonzero;stroke:#8aff00" id="use6298" d="m 29.454545,15.545455 c 0,6.376379 -5.169076,11.545455 -11.545455,11.545455 -6.376379,0 -11.5454549,-5.169076 -11.5454549,-11.545455 C 6.3636351,9.1690763 11.532711,4 17.90909,4 24.285469,4 29.454545,9.1690763 29.454545,15.545455 z" transform="matrix(0,1,-1,0,67.909092,48.454548)"/><path style="opacity:.36000001;fill:#61ff00;fill-opacity:1;fill-rule:nonzero;stroke:#61ff00" id="use6300" d="m 29.454545,15.545455 c 0,6.376379 -5.169076,11.545455 -11.545455,11.545455 -6.376379,0 -11.5454549,-5.169076 -11.5454549,-11.545455 C 6.3636351,9.1690763 11.532711,4 17.90909,4 24.285469,4 29.454545,9.1690763 29.454545,15.545455 z" transform="matrix(-0.1736482,0.9848078,-0.9848078,-0.1736482,70.6074,53.430914)"/><path style="opacity:.356;fill:#37ff00;fill-opacity:1;fill-rule:nonzero;stroke:#37ff00" id="use6302" d="m 29.454545,15.545455 c 0,6.376379 -5.169076,11.545455 -11.545455,11.545455 -6.376379,0 -11.5454549,-5.169076 -11.5454549,-11.545455 C 6.3636351,9.1690763 11.532711,4 17.90909,4 24.285469,4 29.454545,9.1690763 29.454545,15.545455 z" transform="matrix(-0.3420201,0.9396926,-0.9396926,-0.3420201,72.40058,58.800236)"/><path style="opacity:.35199998;fill:#0eff00;fill-opacity:1;fill-rule:nonzero;stroke:#0eff00" id="use6304" d="m 29.454545,15.545455 c 0,6.376379 -5.169076,11.545455 -11.545455,11.545455 -6.376379,0 -11.5454549,-5.169076 -11.5454549,-11.545455 C 6.3636351,9.1690763 11.532711,4 17.90909,4 24.285469,4 29.454545,9.1690763 29.454545,15.545455 z" transform="matrix(-0.5,0.8660254,-0.8660254,-0.5,73.234143,64.399366)"/><path style="opacity:.34800002;fill:#00ff1b;fill-opacity:1;fill-rule:nonzero;stroke:#00ff1b" id="use6306" d="m 29.454545,15.545455 c 0,6.376379 -5.169076,11.545455 -11.545455,11.545455 -6.376379,0 -11.5454549,-5.169076 -11.5454549,-11.545455 C 6.3636351,9.1690763 11.532711,4 17.90909,4 24.285469,4 29.454545,9.1690763 29.454545,15.545455 z" transform="matrix(-0.6427876,0.7660444,-0.7660444,-0.6427876,73.082764,70.05818)"/><path style="opacity:.344;fill:#0f4;fill-opacity:1;fill-rule:nonzero;stroke:#0f4" id="use6308" d="m 29.454545,15.545455 c 0,6.376379 -5.169076,11.545455 -11.545455,11.545455 -6.376379,0 -11.5454549,-5.169076 -11.5454549,-11.545455 C 6.3636351,9.1690763 11.532711,4 17.90909,4 24.285469,4 29.454545,9.1690763 29.454545,15.545455 z" transform="matrix(-0.7660444,0.6427876,-0.6427876,-0.7660444,71.951042,75.604738)"/><path style="opacity:.33999999;fill:#00ff6e;fill-opacity:1;fill-rule:nonzero;stroke:#00ff6e" id="use6310" d="m 29.454545,15.545455 c 0,6.376379 -5.169076,11.545455 -11.545455,11.545455 -6.376379,0 -11.5454549,-5.169076 -11.5454549,-11.545455 C 6.3636351,9.1690763 11.532711,4 17.90909,4 24.285469,4 29.454545,9.1690763 29.454545,15.545455 z" transform="matrix(-0.8660254,0.5,-0.5,-0.8660254,69.873364,80.870509)"/><path style="opacity:.33599997;fill:#00ff97;fill-opacity:1;fill-rule:nonzero;stroke:#00ff97" id="use6312" d="m 29.454545,15.545455 c 0,6.376379 -5.169076,11.545455 -11.545455,11.545455 -6.376379,0 -11.5454549,-5.169076 -11.5454549,-11.545455 C 6.3636351,9.1690763 11.532711,4 17.90909,4 24.285469,4 29.454545,9.1690763 29.454545,15.545455 z" transform="matrix(-0.9396926,0.3420201,-0.3420201,-0.9396926,66.912859,85.6955)"/><path style="opacity:.33200001;fill:#00ffc1;fill-opacity:1;fill-rule:nonzero;stroke:#00ffc1" id="use6314" d="m 29.454545,15.545455 c 0,6.376379 -5.169076,11.545455 -11.545455,11.545455 -6.376379,0 -11.5454549,-5.169076 -11.5454549,-11.545455 C 6.3636351,9.1690763 11.532711,4 17.90909,4 24.285469,4 29.454545,9.1690763 29.454545,15.545455 z" transform="matrix(-0.9848078,0.1736482,-0.1736482,-0.9848078,63.159479,89.933097)"/><path style="opacity:.32799994;fill:#00ffea;fill-opacity:1;fill-rule:nonzero;stroke:#00ffea" id="use6316" d="m 29.454545,15.545455 c 0,6.376379 -5.169076,11.545455 -11.545455,11.545455 -6.376379,0 -11.5454549,-5.169076 -11.5454549,-11.545455 C 6.3636351,9.1690763 11.532711,4 17.90909,4 24.285469,4 29.454545,9.1690763 29.454545,15.545455 z" transform="matrix(-1,0,0,-1,58.727272,93.454552)"/><path style="opacity:.32399998;fill:#00ecff;fill-opacity:1;fill-rule:nonzero;stroke:#00ecff" id="use6318" d="m 29.454545,15.545455 c 0,6.376379 -5.169076,11.545455 -11.545455,11.545455 -6.376379,0 -11.5454549,-5.169076 -11.5454549,-11.545455 C 6.3636351,9.1690763 11.532711,4 17.90909,4 24.285469,4 29.454545,9.1690763 29.454545,15.545455 z" transform="matrix(-0.9848078,-0.1736482,0.1736482,-0.9848078,53.750906,96.152852)"/><path style="opacity:.32000002;fill:#00c2ff;fill-opacity:1;fill-rule:nonzero;stroke:#00c2ff" id="use6320" d="m 29.454545,15.545455 c 0,6.376379 -5.169076,11.545455 -11.545455,11.545455 -6.376379,0 -11.5454549,-5.169076 -11.5454549,-11.545455 C 6.3636351,9.1690763 11.532711,4 17.90909,4 24.285469,4 29.454545,9.1690763 29.454545,15.545455 z" transform="matrix(-0.9396926,-0.3420201,0.3420201,-0.9396926,48.381584,97.946041)"/><path style="opacity:.31600001;fill:#09f;fill-opacity:1;fill-rule:nonzero;stroke:#09f" id="use6322" d="m 29.454545,15.545455 c 0,6.376379 -5.169076,11.545455 -11.545455,11.545455 -6.376379,0 -11.5454549,-5.169076 -11.5454549,-11.545455 C 6.3636351,9.1690763 11.532711,4 17.90909,4 24.285469,4 29.454545,9.1690763 29.454545,15.545455 z" transform="matrix(-0.8660254,-0.5,0.5,-0.8660254,42.782454,98.779604)"/><path style="opacity:.31199999;fill:#006fff;fill-opacity:1;fill-rule:nonzero;stroke:#006fff" id="use6324" d="m 29.454545,15.545455 c 0,6.376379 -5.169076,11.545455 -11.545455,11.545455 -6.376379,0 -11.5454549,-5.169076 -11.5454549,-11.545455 C 6.3636351,9.1690763 11.532711,4 17.90909,4 24.285469,4 29.454545,9.1690763 29.454545,15.545455 z" transform="matrix(-0.7660444,-0.6427876,0.6427876,-0.7660444,37.12364,98.628219)"/><path style="opacity:.30799997;fill:#0046ff;fill-opacity:1;fill-rule:nonzero;stroke:#0046ff" id="use6326" d="m 29.454545,15.545455 c 0,6.376379 -5.169076,11.545455 -11.545455,11.545455 -6.376379,0 -11.5454549,-5.169076 -11.5454549,-11.545455 C 6.3636351,9.1690763 11.532711,4 17.90909,4 24.285469,4 29.454545,9.1690763 29.454545,15.545455 z" transform="matrix(-0.6427876,-0.7660444,0.7660444,-0.6427876,31.577082,97.496499)"/><path style="opacity:.30400002;fill:#001cff;fill-opacity:1;fill-rule:nonzero;stroke:#001cff" id="use6328" d="m 29.454545,15.545455 c 0,6.376379 -5.169076,11.545455 -11.545455,11.545455 -6.376379,0 -11.5454549,-5.169076 -11.5454549,-11.545455 C 6.3636351,9.1690763 11.532711,4 17.90909,4 24.285469,4 29.454545,9.1690763 29.454545,15.545455 z" transform="matrix(-0.5,-0.8660254,0.8660254,-0.5,26.311311,95.41882)"/><path style="opacity:.3;fill:#0c00ff;fill-opacity:1;fill-rule:nonzero;stroke:#0c00ff" id="use6330" d="m 29.454545,15.545455 c 0,6.376379 -5.169076,11.545455 -11.545455,11.545455 -6.376379,0 -11.5454549,-5.169076 -11.5454549,-11.545455 C 6.3636351,9.1690763 11.532711,4 17.90909,4 24.285469,4 29.454545,9.1690763 29.454545,15.545455 z" transform="matrix(-0.3420201,-0.9396926,0.9396926,-0.3420201,21.486323,92.458315)"/><path style="opacity:.29599998;fill:#3600ff;fill-opacity:1;fill-rule:nonzero;stroke:#3600ff" id="use6332" d="m 29.454545,15.545455 c 0,6.376379 -5.169076,11.545455 -11.545455,11.545455 -6.376379,0 -11.5454549,-5.169076 -11.5454549,-11.545455 C 6.3636351,9.1690763 11.532711,4 17.90909,4 24.285469,4 29.454545,9.1690763 29.454545,15.545455 z" transform="matrix(-0.1736482,-0.9848078,0.9848078,-0.1736482,17.248725,88.704935)"/><path style="opacity:.29200003;fill:#5f00ff;fill-opacity:1;fill-rule:nonzero;stroke:#5f00ff" id="use6334" d="m 29.454545,15.545455 c 0,6.376379 -5.169076,11.545455 -11.545455,11.545455 -6.376379,0 -11.5454549,-5.169076 -11.5454549,-11.545455 C 6.3636351,9.1690763 11.532711,4 17.90909,4 24.285469,4 29.454545,9.1690763 29.454545,15.545455 z" transform="matrix(0,-1,1,0,13.727272,84.272728)"/><path style="opacity:.28800001;fill:#8900ff;fill-opacity:1;fill-rule:nonzero;stroke:#8900ff" id="use6336" d="m 29.454545,15.545455 c 0,6.376379 -5.169076,11.545455 -11.545455,11.545455 -6.376379,0 -11.5454549,-5.169076 -11.5454549,-11.545455 C 6.3636351,9.1690763 11.532711,4 17.90909,4 24.285469,4 29.454545,9.1690763 29.454545,15.545455 z" transform="matrix(0.1736482,-0.9848078,0.9848078,0.1736482,11.028963,79.296362)"/><path style="opacity:.28399999;fill:#b200ff;fill-opacity:1;fill-rule:nonzero;stroke:#b200ff" id="use6338" d="m 29.454545,15.545455 c 0,6.376379 -5.169076,11.545455 -11.545455,11.545455 -6.376379,0 -11.5454549,-5.169076 -11.5454549,-11.545455 C 6.3636351,9.1690763 11.532711,4 17.90909,4 24.285469,4 29.454545,9.1690763 29.454545,15.545455 z" transform="matrix(0.3420201,-0.9396926,0.9396926,0.3420201,9.2357838,73.92704)"/><path style="opacity:.27999998;fill:#dc00ff;fill-opacity:1;fill-rule:nonzero;stroke:#dc00ff" id="use6340" d="m 29.454545,15.545455 c 0,6.376379 -5.169076,11.545455 -11.545455,11.545455 -6.376379,0 -11.5454549,-5.169076 -11.5454549,-11.545455 C 6.3636351,9.1690763 11.532711,4 17.90909,4 24.285469,4 29.454545,9.1690763 29.454545,15.545455 z" transform="matrix(0.5,-0.8660254,0.8660254,0.5,8.4022205,68.32791)"/><path style="opacity:.27600002;fill:#ff00fa;fill-opacity:1;fill-rule:nonzero;stroke:#ff00fa" id="use6342" d="m 29.454545,15.545455 c 0,6.376379 -5.169076,11.545455 -11.545455,11.545455 -6.376379,0 -11.5454549,-5.169076 -11.5454549,-11.545455 C 6.3636351,9.1690763 11.532711,4 17.90909,4 24.285469,4 29.454545,9.1690763 29.454545,15.545455 z" transform="matrix(0.6427876,-0.7660444,0.7660444,0.6427876,8.5535989,62.669096)"/><path style="opacity:.27200006;fill:#ff00d0;fill-opacity:1;fill-rule:nonzero;stroke:#ff00d0" id="use6344" d="m 29.454545,15.545455 c 0,6.376379 -5.169076,11.545455 -11.545455,11.545455 -6.376379,0 -11.5454549,-5.169076 -11.5454549,-11.545455 C 6.3636351,9.1690763 11.532711,4 17.90909,4 24.285469,4 29.454545,9.1690763 29.454545,15.545455 z" transform="matrix(0.7660444,-0.6427876,0.6427876,0.7660444,9.6853214,57.122538)"/><path style="opacity:.26799999;fill:#ff00a7;fill-opacity:1;fill-rule:nonzero;stroke:#ff00a7" id="use6346" d="m 29.454545,15.545455 c 0,6.376379 -5.169076,11.545455 -11.545455,11.545455 -6.376379,0 -11.5454549,-5.169076 -11.5454549,-11.545455 C 6.3636351,9.1690763 11.532711,4 17.90909,4 24.285469,4 29.454545,9.1690763 29.454545,15.545455 z" transform="matrix(0.8660254,-0.5,0.5,0.8660254,11.763,51.856767)"/><path style="opacity:.26400003;fill:#ff007d;fill-opacity:1;fill-rule:nonzero;stroke:#ff007d" id="use6348" d="m 29.454545,15.545455 c 0,6.376379 -5.169076,11.545455 -11.545455,11.545455 -6.376379,0 -11.5454549,-5.169076 -11.5454549,-11.545455 C 6.3636351,9.1690763 11.532711,4 17.90909,4 24.285469,4 29.454545,9.1690763 29.454545,15.545455 z" transform="matrix(0.9396926,-0.3420201,0.3420201,0.9396926,14.723504,47.031779)"/><path style="opacity:.26000001;fill:#ff0054;fill-opacity:1;fill-rule:nonzero;stroke:#ff0054" id="use6350" d="m 29.454545,15.545455 c 0,6.376379 -5.169076,11.545455 -11.545455,11.545455 -6.376379,0 -11.5454549,-5.169076 -11.5454549,-11.545455 C 6.3636351,9.1690763 11.532711,4 17.90909,4 24.285469,4 29.454545,9.1690763 29.454545,15.545455 z" transform="matrix(0.9848078,-0.1736482,0.1736482,0.9848078,18.476885,42.794181)"/></g></g></svg>