<svg xmlns="http://www.w3.org/2000/svg" xmlns:svg="http://www.w3.org/2000/svg" xmlns:xlink="http://www.w3.org/1999/xlink" id="svg2" width="500" height="500" version="1.1"><defs id="defs4"><filter id="filter3665" width="1.166" height="1.36" x="-.083" y="-.18" color-interpolation-filters="sRGB"><feGaussianBlur id="feGaussianBlur3667" stdDeviation="6.074"/></filter><filter id="filter3698" width="1.678" height="1.783" x="-.339" y="-.391"><feGaussianBlur id="feGaussianBlur3700" stdDeviation="23.726"/></filter><linearGradient id="linearGradient6470" x1="32.091" x2="31.091" y1="1.818" y2="62.909" gradientTransform="translate(0,-0.1818182)" gradientUnits="userSpaceOnUse" xlink:href="#linearGradient6464"/><linearGradient id="linearGradient6464"><stop style="stop-color:#0061ff;stop-opacity:1" id="stop6466" offset="0"/><stop style="stop-color:#001c4c;stop-opacity:1" id="stop6468" offset="1"/></linearGradient><linearGradient id="linearGradient6488" x1="32.182" x2="32.182" y1="3.284" y2="13.026" gradientTransform="matrix(1.0281354,0,0,1.0429299,-0.9963584,-0.6864152)" gradientUnits="userSpaceOnUse" xlink:href="#linearGradient6482"/><linearGradient id="linearGradient6482"><stop style="stop-color:#fff;stop-opacity:1" id="stop6484" offset="0"/><stop style="stop-color:#0f0;stop-opacity:0" id="stop6486" offset="1"/></linearGradient><linearGradient id="linearGradient4241" x1="32.182" x2="32.182" y1="3.284" y2="13.026" gradientTransform="matrix(1.0281354,0,0,1.0429299,-0.9963584,-0.6864152)" gradientUnits="userSpaceOnUse" xlink:href="#linearGradient6482"/></defs><metadata id="metadata7"/><g id="layer1" transform="translate(0,-552.36218)"><g id="g4214" transform="matrix(7.8163235,0,0,7.8163235,-0.83292805,550.81868)"><rect id="rect6462" width="61.636" height="61.091" x="1.273" y="1.636" ry="5.636" style="fill:url(#linearGradient6470);fill-opacity:1;fill-rule:nonzero;stroke:#000;stroke-opacity:1"/><rect id="rect6472" width="59.797" height="13.251" x="2.193" y="2.738" ry="4.733" style="fill:url(#linearGradient4241);fill-opacity:1;fill-rule:nonzero;stroke:none"/></g><path style="fill:#b3b3b3;fill-opacity:1;stroke:#000;stroke-width:6.0999999;stroke-linecap:round;stroke-linejoin:round;stroke-miterlimit:4;stroke-opacity:1;stroke-dasharray:none" id="path3612" d="m 600,530.93359 a 182.85715,278.57144 0 1 1 -365.71429,0 182.85715,278.57144 0 1 1 365.71429,0 z" transform="matrix(0.61209183,0,0,0.61209183,-3.991318,525.05368)"/><path style="fill:none;stroke:#000;stroke-width:6.13613224;stroke-linecap:butt;stroke-linejoin:miter;stroke-miterlimit:4;stroke-opacity:1;stroke-dasharray:none" id="path3616" d="m 142.11886,816.39544 c 24.00477,4.86037 45.6417,7.63291 64.92353,9.13533 19.28183,1.50242 36.21854,1.73784 51.02095,1.34614 0,0 1e-5,0 2e-5,0 13.29628,-0.35181 24.86633,-1.20953 34.92728,-2.21877 10.06095,-1.00924 18.61449,-2.17406 25.89398,-3.29764 7.2795,-1.12357 13.28565,-2.20883 18.25057,-3.16435 4.96493,-0.95552 8.88876,-1.78341 11.99632,-2.46006 6.21511,-1.3533 9.16978,-2.08479 10.58303,-2.42613 1.41324,-0.34134 1.28035,-0.31346 1.28035,-0.31346"/><path style="fill:#ccc;fill-opacity:1;stroke:#000;stroke-width:6.12091827;stroke-linecap:butt;stroke-linejoin:miter;stroke-miterlimit:4;stroke-opacity:1;stroke-dasharray:none" id="path3630" d="m 248.96734,677.61194 c -0.0885,-1.27893 -0.38139,-2.52136 -0.71317,-3.75539 -0.43385,-1.66713 -1.25768,-3.16324 -1.99558,-4.7038 -0.90768,-1.8401 -1.86244,-3.6568 -2.72814,-5.51719 -1.18705,-2.366 -1.96091,-4.89695 -2.51888,-7.47608 -0.47879,-2.43103 -0.58581,-4.90881 -0.658,-7.3784 -0.10623,-2.18284 -0.0318,-4.33797 0.41298,-6.47878 0.53053,-2.30687 1.5949,-4.39973 2.7494,-6.4444 1.18372,-2.13101 2.57365,-4.13797 4.00257,-6.10975 1.6915,-2.32254 3.37358,-4.65334 5.02606,-7.00398 1.78446,-2.34318 3.26895,-4.88531 4.40836,-7.59822 1.06673,-2.79668 1.89877,-5.67055 2.55938,-8.58771 0.52752,-2.99212 0.85508,-6.01611 1.2607,-9.02686 0.33319,-2.7066 0.71113,-5.40417 0.91074,-8.12487 0.15727,-2.04704 0.0839,-4.10262 0.20469,-6.15038 0.11001,-1.20566 0.0537,-0.6027 0.169,-1.80889 0,0 4.62033,-1.69611 4.62033,-1.69611 l 0,0 c -0.11326,1.20322 -0.0549,0.60351 -0.1749,1.79914 -0.17508,2.05282 -0.067,4.12276 -0.26895,6.17634 -0.21654,2.73665 -0.60921,5.44735 -0.95219,8.16968 -0.40694,3.02381 -0.76233,6.05729 -1.25622,9.0672 -0.62729,2.94555 -1.48097,5.83138 -2.51527,8.66043 -1.10532,2.75447 -2.58296,5.34141 -4.38595,7.70299 -1.64059,2.34423 -3.30775,4.67011 -4.97291,6.99671 -1.42967,1.95096 -2.81389,3.94317 -4.00201,6.05234 -1.1492,2.0043 -2.2388,4.03221 -2.78322,6.29949 -0.47473,2.10489 -0.53758,4.2177 -0.45096,6.37089 0.0321,2.4461 0.12098,4.9024 0.56991,7.31339 0.54584,2.54611 1.32065,5.03282 2.52256,7.35326 0.89398,1.84621 1.8571,3.65753 2.75888,5.49995 0.76468,1.56339 1.64142,3.06712 2.05859,4.77667 0.34656,1.2681 0.66969,2.53341 0.87954,3.83224 0,0 -4.73734,1.79009 -4.73734,1.79009 z"/><path style="fill:#f5f5f5;fill-opacity:1;stroke:none;filter:url(#filter3698)" id="path3639" d="m 425.59614,766.26703 c 0,61.37423 -37.57989,111.12788 -83.93702,111.12788 -46.35714,0 -83.93702,-49.75365 -83.93702,-111.12788 0,-61.37423 35.84359,-21.8744 82.20073,-21.8744 46.35713,0 85.67331,-39.49983 85.67331,21.8744 z" transform="matrix(0.69925909,0,0,0.43529764,8.7273325,624.72118)"/><path style="opacity:.89905366;fill:#f5f5f5;fill-opacity:1;stroke:none;filter:url(#filter3665)" id="path3662" d="m 469.58541,345.39972 c 20.45501,37.64961 -34.52081,-41.94944 -75.00169,-41.94944 -40.48088,0 -109.09338,79.59905 -93.75212,40.42401 14.47794,-36.9705 46.4529,-69.40726 86.93378,-69.40726 40.48088,0 81.82003,31.75765 81.82003,70.93269 z" transform="matrix(0.84903062,0,0,0.94874234,-79.418225,424.35786)"/><path style="fill:none;stroke:#000;stroke-width:6.12091827;stroke-linecap:butt;stroke-linejoin:miter;stroke-miterlimit:4;stroke-opacity:1;stroke-dasharray:none" id="path3620" d="m 251.02516,679.52011 c 0,147.36327 0,147.36327 0,147.36327"/><path style="fill:#ccc;fill-opacity:1;stroke:#000;stroke-width:10;stroke-linecap:round;stroke-linejoin:round;stroke-miterlimit:4;stroke-opacity:1;stroke-dasharray:none" id="path3622" d="m 442.21741,386.11023 a 21.316719,47.649136 0 1 1 -42.63343,0 21.316719,47.649136 0 1 1 42.63343,0 z" transform="matrix(0.61209183,0,0,0.61209183,-6.549708,519.42522)"/></g></svg>